<svg width="853" height="853" viewBox="0 0 853 853" fill="none" xmlns="http://www.w3.org/2000/svg">
<rect width="853" height="853" rx="70" fill="white"/>
<path d="M373.363 508.948C338.062 494.065 310.194 473.808 289.774 448.167C269.355 422.532 259.145 394.616 259.145 364.416C259.145 334.215 269.355 306.296 289.782 280.66C310.2 255.024 338.063 234.765 373.368 219.879C408.674 204.995 447.074 197.557 488.574 197.557C530.07 197.557 568.47 205 603.778 219.879C639.082 234.764 666.946 255.023 687.366 280.66C707.787 306.301 718 334.215 718 364.417C718 390.269 710.276 414.613 694.851 437.425C679.428 460.232 658.243 479.464 631.305 495.104C633.476 500.323 635.703 505.096 637.985 509.448C640.268 513.792 642.981 517.971 646.134 521.993C649.284 526.017 651.726 529.165 653.465 531.439C655.204 533.72 658.028 536.932 661.941 541.052C665.852 545.181 668.352 547.896 669.437 549.197C669.437 548.979 669.872 549.471 670.741 550.666C671.612 551.861 672.101 552.401 672.208 552.299C672.318 552.182 672.753 552.725 673.513 553.92C674.273 555.116 674.654 555.713 674.654 555.713L675.47 557.337C675.792 557.994 676.014 558.635 676.121 559.292C676.231 559.939 676.285 560.65 676.285 561.408C676.285 562.166 676.178 562.869 675.957 563.524C675.522 566.345 674.273 568.622 672.209 570.368C670.147 572.103 667.922 572.97 665.529 572.97H664.551C653.69 571.449 644.346 569.712 636.526 567.754C603.068 559.068 572.866 545.157 545.926 526.04C526.374 529.517 507.255 531.254 488.571 531.254C447.071 531.269 408.667 523.832 373.363 508.948Z" fill="#3FA2FF"/>
<path d="M157.14 521.003C141.709 498.3 134 473.921 134 447.846C134 421.12 142.157 396.12 158.445 372.875C174.742 349.633 196.906 330.293 224.93 314.868C219.937 331.161 217.438 347.672 217.438 364.405C217.438 393.515 224.707 421.108 239.273 447.182C253.829 473.248 274.687 496.276 301.844 516.268C327.047 534.517 355.726 548.527 387.883 558.307C420.031 568.08 453.6 572.972 488.58 572.972C495.096 572.972 504.657 572.542 517.256 571.674C473.589 600.347 422.313 614.69 363.438 614.69C344.751 614.69 325.634 612.948 306.078 609.472C279.14 628.598 248.937 642.496 215.481 651.192C207.659 653.153 198.317 654.887 187.453 656.406C184.847 656.624 182.453 655.862 180.282 654.124C178.109 652.387 176.695 650.003 176.047 646.965C176.148 645.66 176.047 644.944 175.719 644.841C175.398 644.738 175.453 644.028 175.884 642.727C176.313 641.421 176.532 640.769 176.532 640.769L177.345 639.144C177.571 638.714 177.938 638.113 178.485 637.355C179.028 636.602 179.461 636.05 179.79 635.726C180.109 635.402 180.594 634.855 181.251 634.101C181.899 633.347 182.336 632.854 182.555 632.636C183.641 631.331 186.138 628.617 190.048 624.487C193.962 620.363 196.781 617.159 198.52 614.878C200.258 612.597 202.703 609.448 205.853 605.425C209.001 601.409 211.72 597.226 214.001 592.879C216.282 588.535 218.509 583.753 220.681 578.542C193.741 562.886 172.562 543.713 157.14 521.003Z" fill="#3FA2FF"/>
</svg>
